<svg width="609" height="125" xmlns="http://www.w3.org/2000/svg" baseProfile="tiny">

 <g>
  <title>Layer 1</title>
  <path id="svg_1" fill="#387ed1" fill-rule="evenodd" d="m66.252,21.469c4.404,5.71 8.056,12.124 10.886,19.04l0,-36.578l-31.061,0c7.472,4.037 14.317,9.943 20.175,17.538zm-44.779,-13.641c-5.754,0 -11.289,1.23 -16.473,3.506l0,64.735l68.963,0c-0.534,-37.754 -23.875,-68.241 -52.49,-68.241"/>
  <path id="svg_2" d="m118.349,64.918l38.533,-46.65l-37.322,0l0,-10.17l52.25,0l0,8.49l-38.533,46.651l38.533,0l0,10.169l-53.461,0l0,-8.49zm67.828,-56.82l48.331,0l0,10.356l-36.948,0l0,16.794l32.751,0l0,10.357l-32.751,0l0,17.446l37.413,0l0,10.356l-48.796,0l0,-65.309zm62.512,0l29.11,0c4.105,0 7.744,0.576 10.917,1.726s5.814,2.752 7.93,4.805c1.741,1.805 3.08,3.888 4.013,6.251s1.398,4.977 1.398,7.837l0,0.187c0,2.675 -0.388,5.085 -1.165,7.231s-1.853,4.044 -3.22,5.691s-3.001,3.049 -4.898,4.198s-3.997,2.038 -6.297,2.659l17.633,24.725l-13.529,0l-16.097,-22.765l-0.186,0l-14.227,0l0,22.765l-11.383,0l0,-65.31l0.001,0zm28.231,32.375c4.115,0 7.393,-0.982 9.824,-2.951s3.652,-4.639 3.652,-8.012l0,-0.187c0,-3.56 -1.188,-6.263 -3.559,-8.106s-5.709,-2.764 -10.014,-2.764l-16.752,0l0,22.019l16.849,0l0,0.001zm70.389,34.055c-5.039,0 -9.641,-0.886 -13.807,-2.658s-7.744,-4.182 -10.73,-7.232s-5.318,-6.607 -6.996,-10.682s-2.521,-8.413 -2.521,-13.016l0,-0.187c0,-4.603 0.84,-8.941 2.521,-13.016s4.041,-7.651 7.09,-10.73s6.654,-5.52 10.824,-7.324s8.768,-2.706 13.807,-2.706s9.641,0.886 13.809,2.659s7.744,4.184 10.73,7.231s5.316,6.609 6.996,10.683s2.521,8.413 2.521,13.015l0,0.187c0,4.604 -0.84,8.943 -2.521,13.015s-4.043,7.651 -7.09,10.73s-6.656,5.521 -10.824,7.324s-8.77,2.707 -13.809,2.707zm0.187,-10.543c3.221,0 6.178,-0.606 8.871,-1.819s5.002,-2.86 6.922,-4.944s3.422,-4.526 4.506,-7.325s1.625,-5.785 1.625,-8.956l0,-0.187c0,-3.172 -0.541,-6.173 -1.625,-9.004s-2.604,-5.286 -4.553,-7.37s-4.289,-3.747 -7.016,-4.992s-5.697,-1.866 -8.918,-1.866s-6.178,0.606 -8.871,1.819s-5.002,2.862 -6.922,4.945s-3.422,4.525 -4.508,7.324s-1.625,5.785 -1.625,8.957l0,0.187c0,3.172 0.541,6.173 1.625,9.002s2.604,5.289 4.555,7.372s4.289,3.748 7.014,4.991s5.699,1.866 8.92,1.866zm47.955,-55.887l24.354,0c5.1,0 9.779,0.825 14.043,2.473s7.928,3.934 11.008,6.857s5.457,6.361 7.139,10.311s2.52,8.227 2.52,12.829l0,0.187c0,4.604 -0.84,8.896 -2.52,12.875s-4.059,7.435 -7.139,10.356s-6.748,5.226 -11.008,6.904s-8.943,2.519 -14.043,2.519l-24.354,0l0,-65.311zm24.26,54.954c3.42,0 6.531,-0.545 9.33,-1.639s5.18,-2.622 7.137,-4.589s3.482,-4.312 4.572,-7.03s1.635,-5.667 1.635,-8.854l0,-0.187c0,-3.186 -0.547,-6.152 -1.635,-8.9s-2.613,-5.106 -4.572,-7.074s-4.338,-3.514 -7.137,-4.639s-5.91,-1.687 -9.33,-1.687l-12.877,0l0,44.598l12.877,0l0,0.001zm48.703,-54.954l11.383,0l0,27.151l31.352,0l0,-27.151l11.383,0l0,65.311l-11.383,0l0,-27.524l-31.352,0l0,27.523l-11.383,0l0,-65.31zm94.049,-0.467l10.637,0l28.736,65.777l-12.129,0l-6.625,-15.768l-30.883,0l-6.719,15.768l-11.756,0l28.739,-65.777zm16.422,39.841l-11.291,-26.125l-11.197,26.125l22.488,0z" fill="#387ed1"/>
  <text transform="matrix(1.05209 0 0 1 -11.5214 0)" stroke="null" xml:space="preserve" text-anchor="start" font-family="Noto Sans JP" font-size="35" stroke-width="0" id="svg_3" y="110.16649" x="135.7525" fill="#2e8be8">Clone - Made by Rohan</text>
 </g>
</svg>